<?xml version="1.0" standalone="no"?>
<!DOCTYPE svg PUBLIC "-//W3C//DTD SVG 20010904//EN"
 "http://www.w3.org/TR/2001/REC-SVG-20010904/DTD/svg10.dtd">
<svg version="1.0" xmlns="http://www.w3.org/2000/svg"
 width="512.000000pt" height="512.000000pt" viewBox="0 0 512.000000 512.000000"
 preserveAspectRatio="xMidYMid meet">

<g transform="translate(0.000000,512.000000) scale(0.100000,-0.100000)"
fill="#000000" stroke="none">
<path d="M1385 4906 c-156 -38 -266 -160 -297 -325 -22 -119 21 -251 112 -341
79 -80 184 -120 312 -120 l48 0 0 -148 c0 -229 16 -230 180 -12 l120 160 127
0 126 0 49 -46 c63 -58 156 -102 237 -110 l63 -7 119 -159 c76 -100 126 -158
137 -158 37 0 42 19 42 172 l0 148 368 0 c223 0 392 4 427 11 207 38 355 248
317 449 -31 171 -149 295 -310 329 -33 7 -180 11 -384 11 l-331 0 -54 51 c-29
27 -79 62 -110 77 l-58 27 -595 2 c-445 1 -608 -1 -645 -11z m1266 -97 c117
-55 184 -160 184 -289 0 -129 -67 -234 -184 -289 l-56 -26 -388 -3 -387 -3
-88 -116 -87 -117 -3 104 c-1 57 -7 109 -13 116 -5 7 -52 13 -118 16 -98 4
-116 8 -175 37 -40 19 -77 47 -96 71 -145 183 -81 425 136 510 47 18 78 19
634 17 l585 -2 56 -26z m903 -271 c8 -13 8 -23 0 -35 -10 -16 -36 -18 -269
-21 -265 -2 -285 0 -285 37 0 39 15 41 284 39 234 -3 260 -5 270 -20z m-320
-160 c8 -13 8 -23 0 -35 -10 -16 -30 -18 -149 -21 -141 -3 -165 3 -165 37 0
37 20 42 164 39 119 -3 140 -5 150 -20z m320 0 c8 -13 8 -23 0 -35 -9 -15 -29
-19 -109 -21 -100 -3 -125 5 -125 37 0 35 21 42 124 39 81 -2 101 -6 110 -20z
m0 -160 c8 -13 8 -23 0 -35 -10 -17 -40 -18 -349 -21 -348 -2 -365 -1 -365 37
0 40 11 41 364 39 310 -3 340 -4 350 -20z"/>
<path d="M1332 4708 c-16 -16 -15 -43 2 -57 9 -8 89 -11 271 -9 233 3 259 5
269 21 8 12 8 22 0 35 -10 15 -36 17 -270 20 -194 2 -263 -1 -272 -10z"/>
<path d="M1972 4708 c-16 -16 -15 -43 2 -57 9 -8 110 -11 351 -9 309 3 339 4
349 21 8 12 8 22 0 35 -10 16 -40 17 -350 20 -256 2 -343 -1 -352 -10z"/>
<path d="M1332 4548 c-16 -16 -15 -43 2 -57 9 -8 131 -10 431 -9 385 3 419 4
429 21 8 12 8 22 0 35 -10 16 -44 17 -430 20 -318 2 -423 -1 -432 -10z"/>
<path d="M2292 4548 c-7 -7 -12 -20 -12 -29 0 -35 23 -40 205 -37 157 3 179 5
189 21 8 12 8 22 0 35 -10 15 -32 17 -190 20 -131 2 -183 -1 -192 -10z"/>
<path d="M1332 4388 c-6 -6 -12 -20 -12 -29 0 -34 24 -40 165 -37 119 3 139 5
149 21 8 12 8 22 0 35 -10 15 -31 17 -150 20 -100 2 -143 -1 -152 -10z"/>
<path d="M1732 4388 c-16 -16 -15 -43 2 -57 9 -8 141 -10 471 -9 423 3 459 4
469 21 8 12 8 22 0 35 -10 16 -46 17 -470 20 -349 2 -463 -1 -472 -10z"/>
<path d="M1067 3870 c-102 -26 -144 -67 -346 -335 -205 -273 -215 -290 -214
-369 1 -75 22 -125 72 -175 60 -60 107 -71 298 -71 l163 0 0 -54 0 -53 -42
-17 c-109 -41 -221 -170 -258 -295 -10 -36 -96 -562 -191 -1169 -138 -890
-169 -1105 -159 -1117 11 -13 86 -15 550 -15 418 0 540 3 548 12 5 7 29 132
52 278 23 146 43 266 44 267 2 2 8 -20 14 -48 19 -80 60 -155 120 -221 112
-121 244 -181 400 -181 l82 0 0 -41 c0 -23 5 -47 12 -54 17 -17 2279 -17 2296
0 9 9 12 151 12 579 l0 568 26 20 c15 12 48 48 75 81 178 222 184 542 14 765
-21 27 -35 54 -32 64 3 9 17 48 31 86 15 40 26 92 26 121 0 110 -57 222 -144
280 -73 48 -147 64 -297 64 l-127 0 -69 98 c-136 192 -231 361 -334 593 -47
107 -72 150 -113 195 -118 130 -279 181 -439 139 -86 -22 -135 -51 -203 -119
-106 -106 -138 -206 -132 -409 3 -124 2 -128 -17 -121 -11 4 -40 8 -65 11 -80
7 -98 -13 -197 -212 l-88 -175 -77 0 -77 0 -3 245 -3 245 -33 32 -32 33 -229
3 c-257 3 -285 -2 -321 -60 -17 -29 -20 -50 -20 -162 l0 -128 -35 31 c-20 17
-47 34 -60 37 l-25 6 0 168 0 168 38 19 c37 18 37 18 35 76 -4 120 -88 239
-211 295 -49 22 -73 26 -167 29 -60 1 -127 -2 -148 -7z m2103 -335 c0 -31 50
-114 87 -144 44 -36 56 -38 90 -11 37 29 87 26 112 -6 31 -39 27 -77 -10 -108
-17 -14 -38 -26 -48 -26 -24 0 -41 -20 -41 -49 0 -13 -8 -33 -17 -44 -13 -13
-19 -41 -21 -93 -3 -41 -5 -74 -6 -74 -2 0 -63 26 -137 59 l-134 59 -3 158
c-2 93 1 174 8 196 18 61 120 132 120 83z m-1783 -92 l53 -6 0 -154 c0 -109
-4 -163 -14 -187 -18 -43 -74 -85 -123 -93 -57 -9 -63 -17 -63 -94 l0 -69 -44
0 c-24 0 -51 -3 -60 -6 -14 -5 -16 13 -16 167 0 96 -4 180 -8 187 -5 6 -27 14
-51 16 -71 7 -106 59 -77 115 27 51 79 55 129 11 19 -16 44 -30 56 -30 26 0
76 67 93 122 11 37 14 39 42 34 16 -4 54 -9 83 -13z m801 -135 c16 -16 17
-2007 2 -2089 -49 -257 -314 -429 -563 -364 -129 33 -245 125 -299 235 -23 45
-232 730 -225 736 9 7 458 156 461 153 2 -2 19 -51 37 -109 32 -102 33 -112
39 -319 4 -189 7 -215 23 -225 12 -8 22 -8 35 0 16 10 17 55 20 675 l2 664
-125 155 c-69 87 -124 164 -125 176 0 29 24 48 52 40 13 -3 49 -37 81 -76 33
-38 67 -70 76 -70 37 0 41 19 41 209 0 158 2 187 17 203 15 16 35 18 228 18
151 0 214 -3 223 -12z m851 -293 c167 -74 311 -135 321 -135 31 0 39 24 42
124 2 81 6 101 20 110 13 8 23 8 35 0 17 -10 18 -65 23 -853 5 -918 1 -860 61
-861 15 0 31 6 37 13 5 6 33 67 62 135 29 67 56 122 60 122 7 0 480 -230 480
-233 0 -14 -115 -289 -134 -321 -63 -108 -181 -203 -306 -248 -91 -32 -276
-32 -365 0 -130 48 -241 144 -303 260 -68 128 -65 95 -71 774 -5 531 -8 619
-21 631 -8 8 -107 56 -220 106 -247 111 -250 113 -250 151 0 33 129 301 163
338 11 12 30 22 42 22 11 0 157 -61 324 -135z m-1495 -260 c85 -107 96 -124
96 -160 l0 -40 -29 50 c-40 69 -128 150 -203 185 -35 17 -69 30 -76 30 -9 0
-12 14 -10 52 3 49 5 52 38 63 33 11 35 10 61 -24 14 -20 70 -90 123 -156z
m890 -13 c13 -40 70 -75 271 -166 l210 -95 5 -603 5 -603 28 -79 c15 -43 26
-80 25 -81 -2 -1 -57 -7 -123 -14 -66 -6 -207 -21 -313 -32 -106 -12 -195 -20
-197 -18 -2 2 53 305 121 674 69 369 123 684 122 700 -2 24 -8 31 -30 33 -21
3 -30 -2 -38 -20 -5 -13 -45 -221 -90 -463 -44 -242 -82 -449 -85 -461 -4 -17
-10 -20 -35 -16 l-30 4 0 629 0 629 74 0 c63 0 76 -3 80 -18z m1965 2 c61 -18
123 -70 154 -128 16 -30 21 -59 22 -111 0 -68 -6 -86 -180 -527 -104 -264
-185 -458 -193 -458 -13 0 -472 227 -472 234 0 2 63 151 140 332 77 181 140
336 140 345 0 9 -7 22 -15 29 -37 31 -49 10 -235 -428 -100 -235 -186 -434
-191 -442 -5 -8 -9 244 -9 578 l0 592 393 0 c327 0 402 -3 446 -16z m41 -1674
l0 -790 -1080 0 c-1073 0 -1080 0 -1080 20 0 11 4 20 9 20 48 0 1874 193 1897
200 32 11 74 49 92 85 6 12 12 123 14 265 3 275 0 292 -68 332 -19 11 -34 24
-34 30 0 12 242 628 247 628 1 0 3 -355 3 -790z m-2124 342 c7 -5 -2 -70 -28
-207 -20 -110 -35 -207 -32 -217 2 -9 11 -19 19 -22 8 -2 179 13 380 34 l367
39 76 -78 c131 -133 255 -190 430 -199 122 -6 211 12 317 65 83 41 113 63 180
132 43 44 116 150 127 183 7 19 45 -10 56 -41 10 -29 7 -406 -4 -458 -2 -13
-14 -29 -27 -37 -16 -11 -293 -43 -957 -111 -514 -52 -974 -99 -1021 -105
-168 -17 -293 23 -398 128 -59 58 -112 148 -126 210 l-7 32 60 0 c77 0 198 32
272 71 123 65 231 209 265 350 8 35 15 103 15 152 0 86 6 100 36 79z"/>
</g>
</svg>
